<svg xmlns="http://www.w3.org/2000/svg" viewBox="0 0 1100 780" width="1100" height="780">
  <style>text{font-family:"Helvetica Neue",Helvetica,Arial,"PingFang SC","Microsoft YaHei",sans-serif}</style>
  <defs>
    <marker id="ab" markerWidth="10" markerHeight="7" refX="9" refY="3.5" orient="auto"><polygon points="0 0,10 3.5,0 7" fill="#2563eb"/></marker>
    <marker id="ag" markerWidth="10" markerHeight="7" refX="9" refY="3.5" orient="auto"><polygon points="0 0,10 3.5,0 7" fill="#16a34a"/></marker>
    <marker id="ao" markerWidth="10" markerHeight="7" refX="9" refY="3.5" orient="auto"><polygon points="0 0,10 3.5,0 7" fill="#ea580c"/></marker>
    <marker id="ap" markerWidth="10" markerHeight="7" refX="9" refY="3.5" orient="auto"><polygon points="0 0,10 3.5,0 7" fill="#9333ea"/></marker>
    <marker id="ar" markerWidth="10" markerHeight="7" refX="9" refY="3.5" orient="auto"><polygon points="0 0,10 3.5,0 7" fill="#dc2626"/></marker>
    <marker id="ay" markerWidth="10" markerHeight="7" refX="9" refY="3.5" orient="auto"><polygon points="0 0,10 3.5,0 7" fill="#6b7280"/></marker>
    <marker id="at" markerWidth="10" markerHeight="7" refX="9" refY="3.5" orient="auto"><polygon points="0 0,10 3.5,0 7" fill="#0891b2"/></marker>
    <filter id="sh" x="-4%" y="-4%" width="108%" height="112%"><feDropShadow dx="0" dy="2" stdDeviation="3" flood-opacity="0.08"/></filter>
  </defs>
  <rect width="1100" height="780" fill="#ffffff"/>
  <text x="550" y="32" text-anchor="middle" fill="#111827" font-size="19" font-weight="600">AI Watchdog — Unified Harness Architecture</text>
  <text x="550" y="50" text-anchor="middle" fill="#6b7280" font-size="11">One daemon, four rhythms: 30s guard · 10min agent · 30min compound · midnight review</text>
  <rect x="420" y="66" width="200" height="56" rx="12" fill="#2563eb" stroke="#1d4ed8" stroke-width="2" filter="url(#sh)"/>
  <text x="520" y="90" text-anchor="middle" fill="#fff" font-size="14" font-weight="600">watchdog.sh daemon</text>
  <text x="520" y="106" text-anchor="middle" fill="#dbeafe" font-size="10">macOS LaunchAgent · 7x24</text>
  <rect x="20" y="66" width="170" height="120" rx="8" fill="#f9fafb" stroke="#d1d5db" stroke-width="1.2"/>
  <text x="105" y="84" text-anchor="middle" fill="#374151" font-size="11" font-weight="600">AI Tool Sessions</text>
  <text x="32" y="102" fill="#374151" font-size="9" font-weight="600">~/.claude/projects/</text>
  <text x="32" y="114" fill="#6b7280" font-size="8">Claude sessions</text>
  <text x="32" y="124" fill="#374151" font-size="9" font-weight="600">~/.codex/history.jsonl</text>
  <text x="32" y="136" fill="#6b7280" font-size="8">Codex sessions</text>
  <text x="32" y="146" fill="#374151" font-size="9" font-weight="600">~/.orba/</text>
  <text x="32" y="158" fill="#6b7280" font-size="8">Orba sessions</text>
  <line x1="190" y1="120" x2="418" y2="94" stroke="#2563eb" stroke-width="1.2" stroke-dasharray="4,2" marker-end="url(#ab)"/>
  <rect x="860" y="66" width="220" height="120" rx="8" fill="#fef2f2" stroke="#fca5a5" stroke-width="1.2"/>
  <text x="970" y="84" text-anchor="middle" fill="#dc2626" font-size="11" font-weight="600">MCP Targets (kill) + Tools (protect)</text>
  <text x="872" y="102" fill="#991b1b" font-size="9">KILL: orba-context-mcp</text>
  <text x="872" y="118" fill="#991b1b" font-size="9">KILL: figma/playwright/mitmproxy-mcp</text>
  <text x="872" y="134" fill="#991b1b" font-size="9">KILL: proxyman/ChromeDevTools-mcp</text>
  <text x="872" y="150" fill="#166534" font-size="9">SAFE: claude · codex · Cursor · Warp</text>
  <line x1="622" y1="94" x2="858" y2="94" stroke="#dc2626" stroke-width="1.2" marker-end="url(#ar)"/>
  <rect x="20" y="210" width="240" height="200" rx="10" fill="#eff6ff" stroke="#93c5fd" stroke-width="1.5"/>
  <rect x="28" y="216" width="43" height="18" rx="9" fill="#93c5fd"/>
  <text x="49.5" y="228" text-anchor="middle" fill="#fff" font-size="10" font-weight="600">30s</text>
  <text x="140" y="252" text-anchor="middle" fill="#111827" font-size="12" font-weight="600">Process Guard</text>
  <text x="34" y="272" fill="#111827" font-size="10" font-weight="600">Orphan reaper</text>
  <text x="34" y="284" fill="#6b7280" font-size="9">PPID=1 → kill</text>
  <text x="34" y="296" fill="#111827" font-size="10" font-weight="600">Memory guard</text>
  <text x="34" y="308" fill="#6b7280" font-size="9">&lt;512MB emergency</text>
  <text x="34" y="320" fill="#111827" font-size="10" font-weight="600">Swarm detection</text>
  <text x="34" y="332" fill="#6b7280" font-size="9">&gt;2 copies → kill</text>
  <text x="34" y="344" fill="#111827" font-size="10" font-weight="600">Session recovery</text>
  <text x="34" y="356" fill="#6b7280" font-size="9">resume commands</text>
  <text x="34" y="368" fill="#111827" font-size="10" font-weight="600">Log janitor</text>
  <text x="34" y="380" fill="#6b7280" font-size="9">&gt;3d debug logs</text>
  <rect x="280" y="210" width="240" height="200" rx="10" fill="#ecfeff" stroke="#06b6d4" stroke-width="1.5"/>
  <rect x="288" y="216" width="61" height="18" rx="9" fill="#06b6d4"/>
  <text x="318.5" y="228" text-anchor="middle" fill="#fff" font-size="10" font-weight="600">10min</text>
  <text x="400" y="252" text-anchor="middle" fill="#111827" font-size="12" font-weight="600">LLM Agent (Hermes)</text>
  <text x="294" y="272" fill="#111827" font-size="10" font-weight="600">Collect context</text>
  <text x="294" y="284" fill="#6b7280" font-size="9">health+brain+sessions</text>
  <text x="294" y="296" fill="#111827" font-size="10" font-weight="600">LLM decides</text>
  <text x="294" y="308" fill="#6b7280" font-size="9">inject? refresh? alert?</text>
  <text x="294" y="320" fill="#111827" font-size="10" font-weight="600">Execute actions</text>
  <text x="294" y="332" fill="#6b7280" font-size="9">dispatch to functions</text>
  <text x="294" y="344" fill="#111827" font-size="10" font-weight="600">Decision log</text>
  <text x="294" y="356" fill="#6b7280" font-size="9">memory/session/</text>
  <rect x="540" y="210" width="240" height="200" rx="10" fill="#faf5ff" stroke="#a78bfa" stroke-width="1.5"/>
  <rect x="548" y="216" width="61" height="18" rx="9" fill="#a78bfa"/>
  <text x="578.5" y="228" text-anchor="middle" fill="#fff" font-size="10" font-weight="600">30min</text>
  <text x="660" y="252" text-anchor="middle" fill="#111827" font-size="12" font-weight="600">Compound Loop</text>
  <text x="554" y="272" fill="#111827" font-size="10" font-weight="600">Scan sessions</text>
  <text x="554" y="284" fill="#6b7280" font-size="9">Claude/Codex JSONL</text>
  <text x="554" y="296" fill="#111827" font-size="10" font-weight="600">LLM summarize</text>
  <text x="554" y="308" fill="#6b7280" font-size="9">What worked/failed</text>
  <text x="554" y="320" fill="#111827" font-size="10" font-weight="600">Write brain files</text>
  <text x="554" y="332" fill="#6b7280" font-size="9">learnings + focus</text>
  <text x="554" y="344" fill="#111827" font-size="10" font-weight="600">PageIndex reindex</text>
  <text x="554" y="356" fill="#6b7280" font-size="9">semantic search</text>
  <rect x="800" y="210" width="280" height="200" rx="10" fill="#fff7ed" stroke="#fdba74" stroke-width="1.5"/>
  <rect x="808" y="216" width="52" height="18" rx="9" fill="#fdba74"/>
  <text x="834.0" y="228" text-anchor="middle" fill="#fff" font-size="10" font-weight="600">0:00</text>
  <text x="940" y="252" text-anchor="middle" fill="#111827" font-size="12" font-weight="600">Nightly Review</text>
  <text x="814" y="272" fill="#111827" font-size="10" font-weight="600">Quality scoring</text>
  <text x="814" y="284" fill="#6b7280" font-size="9">per-project 0-100</text>
  <text x="814" y="296" fill="#111827" font-size="10" font-weight="600">Archive dormant</text>
  <text x="814" y="308" fill="#6b7280" font-size="9">7d idle + score&lt;20</text>
  <text x="814" y="320" fill="#111827" font-size="10" font-weight="600">Full PageIndex reindex</text>
  <text x="814" y="332" fill="#6b7280" font-size="9">keep search fresh</text>
  <text x="814" y="344" fill="#111827" font-size="10" font-weight="600">Skill usage report</text>
  <text x="814" y="356" fill="#6b7280" font-size="9">Top 5 tools + tips</text>
  <text x="814" y="368" fill="#111827" font-size="10" font-weight="600">Refresh empty brains</text>
  <text x="814" y="380" fill="#6b7280" font-size="9">fill gaps</text>
  <line x1="520" y1="122" x2="140" y2="208" stroke="#2563eb" stroke-width="1.3" marker-end="url(#ab)"/>
  <line x1="520" y1="122" x2="400" y2="208" stroke="#2563eb" stroke-width="1.3" marker-end="url(#ab)"/>
  <line x1="520" y1="122" x2="660" y2="208" stroke="#2563eb" stroke-width="1.3" marker-end="url(#ab)"/>
  <line x1="520" y1="122" x2="940" y2="208" stroke="#2563eb" stroke-width="1.3" marker-end="url(#ab)"/>
  <rect x="20" y="440" width="1060" height="150" rx="10" fill="none" stroke="#9333ea" stroke-width="1.5" stroke-dasharray="8,4"/>
  <text x="36" y="460" fill="#7c3aed" font-size="11" font-weight="600">Compound Engineering Loop — fully automated by the daemon</text>
  <rect x="40" y="475" width="180" height="50" rx="8" fill="#f9fafb" stroke="#d1d5db" stroke-width="1.5"/>
  <text x="130" y="497" text-anchor="middle" fill="#111827" font-size="10" font-weight="600">You code with AI tools</text>
  <text x="130" y="513" text-anchor="middle" fill="#6b7280" font-size="9">Claude / Codex / Cursor</text>
  <rect x="250" y="475" width="180" height="50" rx="8" fill="#faf5ff" stroke="#a78bfa" stroke-width="1.5"/>
  <text x="340" y="497" text-anchor="middle" fill="#111827" font-size="10" font-weight="600">30min: LLM summarize</text>
  <text x="340" y="513" text-anchor="middle" fill="#6b7280" font-size="9">What worked / failed / learned</text>
  <rect x="460" y="475" width="180" height="50" rx="8" fill="#dcfce7" stroke="#86efac" stroke-width="1.5"/>
  <text x="550" y="497" text-anchor="middle" fill="#111827" font-size="10" font-weight="600">Write brain + index</text>
  <text x="550" y="513" text-anchor="middle" fill="#6b7280" font-size="9">learnings.md + PageIndex</text>
  <rect x="670" y="475" width="180" height="50" rx="8" fill="#ecfeff" stroke="#06b6d4" stroke-width="1.5"/>
  <text x="760" y="497" text-anchor="middle" fill="#111827" font-size="10" font-weight="600">10min: Agent judges</text>
  <text x="760" y="513" text-anchor="middle" fill="#6b7280" font-size="9">Brain ready? → inject CLAUDE.md</text>
  <rect x="880" y="475" width="180" height="50" rx="8" fill="#eff6ff" stroke="#93c5fd" stroke-width="1.5"/>
  <text x="970" y="497" text-anchor="middle" fill="#111827" font-size="10" font-weight="600">Next AI session</text>
  <text x="970" y="513" text-anchor="middle" fill="#6b7280" font-size="9">CLAUDE.md has context auto</text>
  <line x1="220" y1="500" x2="248" y2="500" stroke="#9333ea" stroke-width="1.5" marker-end="url(#ap)"/>
  <line x1="430" y1="500" x2="458" y2="500" stroke="#9333ea" stroke-width="1.5" marker-end="url(#ap)"/>
  <line x1="640" y1="500" x2="668" y2="500" stroke="#9333ea" stroke-width="1.5" marker-end="url(#ap)"/>
  <line x1="850" y1="500" x2="878" y2="500" stroke="#9333ea" stroke-width="1.5" marker-end="url(#ap)"/>
  <path d="M 1060,500 Q 1070,540 1060,555 L 40,555 Q 30,540 40,525 L 40,510" fill="none" stroke="#9333ea" stroke-width="1.2" stroke-dasharray="5,3" marker-end="url(#ap)"/>
  <rect x="480" y="548" width="100" height="14" rx="3" fill="#ffffff" opacity="0.95"/>
  <text x="530" y="559" text-anchor="middle" fill="#9333ea" font-size="9">loop continues</text>
  <rect x="20" y="610" width="520" height="100" rx="8" fill="#f0fdf4" stroke="#86efac" stroke-width="1.2"/>
  <text x="36" y="630" fill="#166534" font-size="11" font-weight="600">~/billion-smart/ — Knowledge Store</text>
  <text x="36" y="650" fill="#6b7280" font-size="10">&lt;project&gt;/brain/learnings.md — What you learned (highest value)</text>
  <text x="36" y="666" fill="#6b7280" font-size="10">&lt;project&gt;/brain/user-focus.md — Your own messages (your intent)</text>
  <text x="36" y="682" fill="#6b7280" font-size="10">&lt;project&gt;/summaries/*.md — Session digests (What Worked / Failed / Decisions)</text>
  <text x="36" y="698" fill="#6b7280" font-size="10">_global/reports/skill-report-*.md — Daily tool usage + suggestions</text>
  <rect x="580" y="610" width="200" height="100" rx="8" fill="#111827" stroke="#374151" stroke-width="1.5"/>
  <text x="680" y="648" text-anchor="middle" fill="#22d3ee" font-size="13" font-weight="600">Web Dashboard</text>
  <text x="680" y="666" text-anchor="middle" fill="#6b7280" font-size="10">localhost:7474</text>
  <text x="680" y="682" text-anchor="middle" fill="#6b7280" font-size="9">Agent decisions · Brain inject</text>
  <text x="680" y="696" text-anchor="middle" fill="#6b7280" font-size="9">Skills · Processes · Sessions</text>
  <rect x="820" y="610" width="260" height="100" rx="8" fill="#ffffff" stroke="#d1d5db" stroke-width="1.5"/>
  <text x="950" y="632" text-anchor="middle" fill="#111827" font-size="11" font-weight="600">CLI Commands</text>
  <text x="832" y="652" fill="#6b7280" font-size="9">hermes agent — LLM 实时判断</text>
  <text x="832" y="666" fill="#6b7280" font-size="9">hermes nightly — 0点全量梳理</text>
  <text x="832" y="680" fill="#6b7280" font-size="9">hermes tracker — 工具使用日报</text>
  <text x="832" y="694" fill="#6b7280" font-size="9">hermes inject &lt;proj&gt; — 注入 CLAUDE.md</text>
  <rect x="20" y="730" width="500" height="36" rx="6" fill="#f9fafb" stroke="#d1d5db" stroke-width="1"/>
  <line x1="30" y1="748" x2="54" y2="748" stroke="#2563eb" stroke-width="1.5" marker-end="url(#ab)"/>
  <text x="60" y="752" fill="#6b7280" font-size="9">30s guard</text>
  <line x1="130" y1="748" x2="154" y2="748" stroke="#06b6d4" stroke-width="1.5" marker-end="url(#at)"/>
  <text x="160" y="752" fill="#6b7280" font-size="9">10min agent</text>
  <line x1="240" y1="748" x2="264" y2="748" stroke="#9333ea" stroke-width="1.5" marker-end="url(#ap)"/>
  <text x="270" y="752" fill="#6b7280" font-size="9">30min compound</text>
  <line x1="370" y1="748" x2="394" y2="748" stroke="#ea580c" stroke-width="1.5" marker-end="url(#ao)"/>
  <text x="400" y="752" fill="#6b7280" font-size="9">midnight review</text>
  <text x="1080" y="770" text-anchor="end" fill="#d1d5db" font-size="8">ai-watchdog unified harness · fireworks-tech-graph Style 1</text>
</svg>