<svg xmlns="http://www.w3.org/2000/svg" viewBox="0 0 1140 960" width="1140" height="960">
  <style>text{font-family:"Helvetica Neue",Helvetica,Arial,"PingFang SC","Microsoft YaHei",sans-serif}</style>
  <defs>
    <marker id="ab" markerWidth="10" markerHeight="7" refX="9" refY="3.5" orient="auto"><polygon points="0 0,10 3.5,0 7" fill="#2563eb"/></marker>
    <marker id="ag" markerWidth="10" markerHeight="7" refX="9" refY="3.5" orient="auto"><polygon points="0 0,10 3.5,0 7" fill="#16a34a"/></marker>
    <marker id="ao" markerWidth="10" markerHeight="7" refX="9" refY="3.5" orient="auto"><polygon points="0 0,10 3.5,0 7" fill="#ea580c"/></marker>
    <marker id="ap" markerWidth="10" markerHeight="7" refX="9" refY="3.5" orient="auto"><polygon points="0 0,10 3.5,0 7" fill="#9333ea"/></marker>
    <marker id="ar" markerWidth="10" markerHeight="7" refX="9" refY="3.5" orient="auto"><polygon points="0 0,10 3.5,0 7" fill="#dc2626"/></marker>
    <marker id="ay" markerWidth="10" markerHeight="7" refX="9" refY="3.5" orient="auto"><polygon points="0 0,10 3.5,0 7" fill="#6b7280"/></marker>
    <marker id="at" markerWidth="10" markerHeight="7" refX="9" refY="3.5" orient="auto"><polygon points="0 0,10 3.5,0 7" fill="#0891b2"/></marker>
    <filter id="sh" x="-4%" y="-4%" width="108%" height="112%"><feDropShadow dx="0" dy="2" stdDeviation="3" flood-opacity="0.08"/></filter>
  </defs>
  <rect width="1140" height="960" fill="#ffffff"/>
  <text x="570" y="30" text-anchor="middle" fill="#111827" font-size="19" font-weight="600">AI Watchdog - Unified Harness Architecture</text>
  <text x="570" y="48" text-anchor="middle" fill="#6b7280" font-size="11">One daemon, four rhythms | 一个守护进程，四个节奏</text>
  <rect x="410" y="62" width="240" height="52" rx="12" fill="#2563eb" stroke="#1d4ed8" stroke-width="2" filter="url(#sh)"/>
  <text x="530" y="84" text-anchor="middle" fill="#fff" font-size="14" font-weight="600">watchdog.sh daemon</text>
  <text x="530" y="100" text-anchor="middle" fill="#dbeafe" font-size="10">macOS LaunchAgent | 7x24 后台运行</text>
  <rect x="20" y="62" width="170" height="90" rx="8" fill="#f9fafb" stroke="#d1d5db" stroke-width="1"/>
  <text x="105" y="80" text-anchor="middle" fill="#374151" font-size="10" font-weight="600">AI 会话数据源</text>
  <text x="30" y="96" fill="#6b7280" font-size="9">~/.claude/projects/ (Claude)</text>
  <text x="30" y="112" fill="#6b7280" font-size="9">~/.codex/  ~/.orba/ (Codex/Orba)</text>
  <text x="30" y="128" fill="#6b7280" font-size="9">Cursor MCP sessions</text>
  <line x1="190" y1="100" x2="408" y2="88" stroke="#2563eb" stroke-width="1" stroke-dasharray="4,2" marker-end="url(#ab)"/>
  <rect x="880" y="62" width="240" height="90" rx="8" fill="#fef2f2" stroke="#fca5a5" stroke-width="1"/>
  <text x="1000" y="80" text-anchor="middle" fill="#dc2626" font-size="10" font-weight="600">MCP 进程管理</text>
  <text x="892" y="98" fill="#991b1b" font-size="9">KILL 孤儿: orba-context/figma/playwright...</text>
  <text x="892" y="114" fill="#166534" font-size="9">SAFE 保护: claude/codex/Cursor/Warp</text>
  <text x="892" y="130" fill="#6b7280" font-size="8">Never touch CLI tools &amp; GUI apps</text>
  <line x1="652" y1="88" x2="878" y2="88" stroke="#dc2626" stroke-width="1" marker-end="url(#ar)"/>
  <rect x="20" y="180" width="230" height="170" rx="10" fill="#eff6ff" stroke="#93c5fd" stroke-width="1.5"/>
  <rect x="28" y="186" width="36" height="18" rx="9" fill="#3b82f6"/>
  <text x="46" y="199" text-anchor="middle" fill="#fff" font-size="9" font-weight="600">30s</text>
  <text x="135" y="216" text-anchor="middle" fill="#111827" font-size="12" font-weight="600">Harness 进程守卫</text>
  <text x="135" y="230" text-anchor="middle" fill="#6b7280" font-size="9">Process Guard | 零配置即可用</text>
  <text x="32" y="250" fill="#1e40af" font-size="9" font-weight="600">杀孤儿 MCP</text>
  <text x="32" y="262" fill="#6b7280" font-size="8">PPID=1 orphan reaper</text>
  <text x="32" y="270" fill="#1e40af" font-size="9" font-weight="600">内存守卫</text>
  <text x="32" y="282" fill="#6b7280" font-size="8">&lt;512MB emergency kill</text>
  <text x="32" y="290" fill="#1e40af" font-size="9" font-weight="600">群集检测</text>
  <text x="32" y="302" fill="#6b7280" font-size="8">same MCP &gt;2 copies</text>
  <text x="32" y="310" fill="#1e40af" font-size="9" font-weight="600">会话恢复</text>
  <text x="32" y="322" fill="#6b7280" font-size="8">1-click resume command</text>
  <text x="32" y="330" fill="#1e40af" font-size="9" font-weight="600">日志清理</text>
  <text x="32" y="342" fill="#6b7280" font-size="8">debug logs &gt;3d auto clean</text>
  <rect x="268" y="180" width="250" height="170" rx="10" fill="#faf5ff" stroke="#a78bfa" stroke-width="1.5"/>
  <rect x="276" y="186" width="50" height="18" rx="9" fill="#8b5cf6"/>
  <text x="301" y="199" text-anchor="middle" fill="#fff" font-size="9" font-weight="600">30min</text>
  <text x="393" y="216" text-anchor="middle" fill="#111827" font-size="12" font-weight="600">知识工厂 Knowledge Factory</text>
  <text x="393" y="230" text-anchor="middle" fill="#7c3aed" font-size="9">PRODUCES 生产知识 | Compound Loop</text>
  <text x="280" y="250" fill="#5b21b6" font-size="9" font-weight="600">扫描会话 JSONL</text>
  <text x="280" y="262" fill="#6b7280" font-size="8">scan Claude/Codex sessions</text>
  <text x="280" y="270" fill="#5b21b6" font-size="9" font-weight="600">LLM 结构化总结</text>
  <text x="280" y="282" fill="#6b7280" font-size="8">What worked / failed / learned</text>
  <text x="280" y="290" fill="#5b21b6" font-size="9" font-weight="600">写 brain 文件</text>
  <text x="280" y="302" fill="#6b7280" font-size="8">learnings.md + user-focus.md</text>
  <text x="280" y="310" fill="#5b21b6" font-size="9" font-weight="600">写 summaries</text>
  <text x="280" y="322" fill="#6b7280" font-size="8">session digest markdown</text>
  <text x="280" y="330" fill="#5b21b6" font-size="9" font-weight="600">PageIndex 索引</text>
  <text x="280" y="342" fill="#6b7280" font-size="8">semantic search reindex</text>
  <line x1="520" y1="265" x2="548" y2="265" stroke="#9333ea" stroke-width="2.5" marker-end="url(#ap)"/>
  <text x="534" y="256" text-anchor="middle" fill="#9333ea" font-size="8" font-weight="600">feeds</text>
  <rect x="550" y="180" width="260" height="170" rx="10" fill="#ecfeff" stroke="#06b6d4" stroke-width="1.8"/>
  <rect x="558" y="186" width="50" height="18" rx="9" fill="#0891b2"/>
  <text x="583" y="199" text-anchor="middle" fill="#fff" font-size="9" font-weight="600">10min</text>
  <text x="680" y="216" text-anchor="middle" fill="#111827" font-size="12" font-weight="600">Hermes Agent 智能判断</text>
  <text x="680" y="230" text-anchor="middle" fill="#0891b2" font-size="9">JUDGES 判断质量 | LLM agent loop</text>
  <text x="562" y="250" fill="#0e7490" font-size="9" font-weight="600">检查 brain 质量</text>
  <text x="562" y="262" fill="#6b7280" font-size="8">brain ready? CLAUDE.md stale?</text>
  <text x="562" y="270" fill="#0e7490" font-size="9" font-weight="600">LLM 推理决策</text>
  <text x="562" y="282" fill="#6b7280" font-size="8">inject / refresh / noop / alert</text>
  <text x="562" y="290" fill="#0e7490" font-size="9" font-weight="600">健康监控</text>
  <text x="562" y="302" fill="#6b7280" font-size="8">memory &gt;90%? MCP swarm &gt;20?</text>
  <text x="562" y="310" fill="#0e7490" font-size="9" font-weight="600">执行分发</text>
  <text x="562" y="322" fill="#6b7280" font-size="8">dispatch actions to functions</text>
  <text x="562" y="330" fill="#0e7490" font-size="9" font-weight="600">决策日志</text>
  <text x="562" y="342" fill="#6b7280" font-size="8">log to memory/session/</text>
  <line x1="812" y1="265" x2="848" y2="265" stroke="#16a34a" stroke-width="2.5" marker-end="url(#ag)"/>
  <rect x="850" y="210" width="270" height="84" rx="10" fill="#dcfce7" stroke="#16a34a" stroke-width="2" filter="url(#sh)"/>
  <text x="985" y="236" text-anchor="middle" fill="#166534" font-size="13" font-weight="600">project/CLAUDE.md</text>
  <text x="985" y="254" text-anchor="middle" fill="#166534" font-size="9">下次 AI 对话自动有上下文</text>
  <text x="985" y="268" text-anchor="middle" fill="#166534" font-size="9">Next session auto-has context</text>
  <text x="985" y="282" text-anchor="middle" fill="#6b7280" font-size="8">Hermes agent auto-inject when brain is ready</text>
  <rect x="850" y="180" width="270" height="26" rx="8" fill="#fff7ed" stroke="#fdba74" stroke-width="1.2"/>
  <rect x="858" y="183" width="34" height="18" rx="9" fill="#f59e0b"/>
  <text x="875" y="196" text-anchor="middle" fill="#fff" font-size="8" font-weight="600">0:00</text>
  <text x="1000" y="196" text-anchor="middle" fill="#c2410c" font-size="9" font-weight="600">Nightly 全量梳理: score + archive + reindex + skill report</text>
  <line x1="470" y1="114" x2="135" y2="178" stroke="#3b82f6" stroke-width="1.2" marker-end="url(#ab)"/>
  <line x1="510" y1="114" x2="393" y2="178" stroke="#8b5cf6" stroke-width="1.2" marker-end="url(#ap)"/>
  <line x1="550" y1="114" x2="680" y2="178" stroke="#0891b2" stroke-width="1.2" marker-end="url(#at)"/>
  <line x1="610" y1="114" x2="985" y2="178" stroke="#f59e0b" stroke-width="1.2" marker-end="url(#ao)"/>
  <rect x="268" y="366" width="542" height="30" rx="6" fill="#fef3c7" stroke="#fbbf24" stroke-width="1"/>
  <text x="539" y="385" text-anchor="middle" fill="#92400e" font-size="9" font-weight="600">Factory 生产知识 (brain, summaries) | Agent 判断质量并推送到 CLAUDE.md | 缺一不可</text>
  <rect x="20" y="412" width="1100" height="310" rx="10" fill="none" stroke="#16a34a" stroke-width="1.5"/>
  <text x="36" y="434" fill="#166534" font-size="13" font-weight="600">~/billion-smart/ — Knowledge Store 知识仓库</text>
  <text x="36" y="450" fill="#6b7280" font-size="9">Per-project: devin/ orba-desktop/ ai-watchdog/ _global/ ... | Hermes 按「团队价值」vs「个人记忆」分别筛选</text>
  <rect x="30" y="462" width="530" height="246" rx="8" fill="#eff6ff" stroke="#93c5fd" stroke-width="1.2"/>
  <text x="295" y="482" text-anchor="middle" fill="#1e40af" font-size="12" font-weight="600">团队知识 Team Knowledge — inject 到 CLAUDE.md</text>
  <text x="295" y="496" text-anchor="middle" fill="#6b7280" font-size="9">任何人接手这个项目都受益 | Hermes 判断: 技术含量够不够? 内容新不新?</text>
  <rect x="42" y="508" width="246" height="90" rx="6" fill="#fff" stroke="#bfdbfe" stroke-width="1"/>
  <text x="52" y="524" fill="#1e40af" font-size="10" font-weight="600">brain/ 项目大脑</text>
  <text x="52" y="540" fill="#374151" font-size="9">index.md — 架构概览 + 关键决策</text>
  <text x="52" y="554" fill="#374151" font-size="9">learnings.md — 技术经验 (What Worked/Failed)</text>
  <text x="52" y="568" fill="#374151" font-size="9">anti-patterns.md — 踩过的坑 (别再犯)</text>
  <text x="52" y="584" fill="#6b7280" font-size="8">→ Hermes inject 到 project/CLAUDE.md</text>
  <rect x="300" y="508" width="250" height="90" rx="6" fill="#fff" stroke="#bfdbfe" stroke-width="1"/>
  <text x="310" y="524" fill="#1e40af" font-size="10" font-weight="600">summaries/ 会话摘要</text>
  <text x="310" y="540" fill="#374151" font-size="9">YYYYMMDD_HHMM.md — 每 30 分钟生成</text>
  <text x="310" y="554" fill="#374151" font-size="9">5 sections: Worked / Failed / Decisions</text>
  <text x="310" y="568" fill="#374151" font-size="9">/ Learnings / Open Issues</text>
  <text x="310" y="584" fill="#6b7280" font-size="8">→ brain 文件的原材料 raw material</text>
  <rect x="42" y="606" width="508" height="50" rx="6" fill="#fff" stroke="#bfdbfe" stroke-width="1"/>
  <text x="52" y="622" fill="#1e40af" font-size="9" font-weight="600">plans/</text>
  <text x="94" y="622" fill="#6b7280" font-size="9">实现方案 implementation plans</text>
  <text x="280" y="622" fill="#1e40af" font-size="9" font-weight="600">learnings/</text>
  <text x="340" y="622" fill="#6b7280" font-size="9">结构化经验</text>
  <text x="420" y="622" fill="#1e40af" font-size="9" font-weight="600">best-practices/</text>
  <text x="510" y="622" fill="#6b7280" font-size="9">方法论</text>
  <text x="52" y="644" fill="#6b7280" font-size="8">superpowers.md | gstack.md | compound-engineering.md — 手工维护的团队工程规范</text>
  <rect x="576" y="462" width="534" height="246" rx="8" fill="#ecfeff" stroke="#06b6d4" stroke-width="1.2"/>
  <text x="843" y="482" text-anchor="middle" fill="#0e7490" font-size="12" font-weight="600">个人记忆 Personal Memory — 只对我有用</text>
  <text x="843" y="496" text-anchor="middle" fill="#6b7280" font-size="9">我的工作节奏和偏好 | Hermes 判断: 关注点变了吗? 工作习惯健康吗?</text>
  <rect x="588" y="508" width="250" height="90" rx="6" fill="#fff" stroke="#a5f3fc" stroke-width="1"/>
  <text x="598" y="524" fill="#0e7490" font-size="10" font-weight="600">brain/user-focus.md 我的关注点</text>
  <text x="598" y="540" fill="#374151" font-size="9">我最近发的消息 (权重最高)</text>
  <text x="598" y="554" fill="#374151" font-size="9">当前在做什么、关心什么</text>
  <text x="598" y="568" fill="#374151" font-size="9">工作方向变化追踪</text>
  <text x="598" y="584" fill="#6b7280" font-size="8">→ 体现在 PageIndex 搜索权重中</text>
  <rect x="850" y="508" width="250" height="90" rx="6" fill="#fff" stroke="#a5f3fc" stroke-width="1"/>
  <text x="860" y="524" fill="#0e7490" font-size="10" font-weight="600">reports/ 个人日报</text>
  <text x="860" y="540" fill="#374151" font-size="9">skill-report-*.md — 工具使用 Top 5</text>
  <text x="860" y="554" fill="#374151" font-size="9">工作模式分析 (探索型/编辑型/shell型)</text>
  <text x="860" y="568" fill="#374151" font-size="9">使用建议 + 效率优化提示</text>
  <text x="860" y="584" fill="#6b7280" font-size="8">→ Nightly 每天 0 点生成</text>
  <rect x="588" y="606" width="250" height="50" rx="6" fill="#fff" stroke="#a5f3fc" stroke-width="1"/>
  <text x="598" y="622" fill="#0e7490" font-size="9" font-weight="600">.archive/</text>
  <text x="654" y="622" fill="#6b7280" font-size="9">冷项目归档 dormant projects archived</text>
  <text x="598" y="640" fill="#6b7280" font-size="8">Nightly 评分 &lt;20 且 7 天没碰 → 自动归档</text>
  <rect x="850" y="606" width="250" height="50" rx="6" fill="#fff" stroke="#a5f3fc" stroke-width="1"/>
  <text x="860" y="622" fill="#0e7490" font-size="9" font-weight="600">pageindex-workspace/ 语义搜索</text>
  <text x="860" y="638" fill="#6b7280" font-size="9">All .md indexed | "上周我学到了什么?"</text>
  <text x="860" y="652" fill="#6b7280" font-size="8">Reindexed at midnight + after summaries</text>
  <path d="M 295,396 L 295,410" fill="none" stroke="#1e40af" stroke-width="1.5" marker-end="url(#ab)"/>
  <text x="310" y="408" fill="#1e40af" font-size="8">团队筛选</text>
  <path d="M 843,396 L 843,410" fill="none" stroke="#0891b2" stroke-width="1.5" marker-end="url(#at)"/>
  <text x="858" y="408" fill="#0891b2" font-size="8">个人筛选</text>
  <rect x="20" y="740" width="340" height="80" rx="8" fill="#111827" stroke="#374151" stroke-width="1.5"/>
  <text x="190" y="766" text-anchor="middle" fill="#22d3ee" font-size="12" font-weight="600">Web Dashboard :7474</text>
  <text x="190" y="782" text-anchor="middle" fill="#6b7280" font-size="9">Processes | Sessions | Agent Decisions</text>
  <text x="190" y="798" text-anchor="middle" fill="#6b7280" font-size="9">Brain Inject | Skill Report | Kill buttons</text>
  <rect x="380" y="740" width="360" height="80" rx="8" fill="#fff" stroke="#d1d5db" stroke-width="1.5"/>
  <text x="560" y="760" text-anchor="middle" fill="#111827" font-size="11" font-weight="600">CLI Commands 命令行</text>
  <text x="392" y="778" fill="#6b7280" font-size="9">hermes agent   — LLM 实时判断 (run agent cycle)</text>
  <text x="392" y="792" fill="#6b7280" font-size="9">hermes nightly — 0点全量梳理 (midnight review)</text>
  <text x="392" y="806" fill="#6b7280" font-size="9">hermes inject  — 注入 brain 到 CLAUDE.md</text>
  <text x="392" y="820" fill="#6b7280" font-size="9">hermes tracker — 工具使用日报 (skill usage)</text>
  <rect x="760" y="740" width="360" height="80" rx="8" fill="#faf5ff" stroke="#a78bfa" stroke-width="1.5"/>
  <text x="940" y="760" text-anchor="middle" fill="#5b21b6" font-size="11" font-weight="600">Compound Engineering Loop</text>
  <text x="772" y="778" fill="#9333ea" font-size="9" font-weight="600">After EVERY task 每次任务后:</text>
  <text x="772" y="794" fill="#374151" font-size="9">1. What worked? → brain/learnings.md (30min 自动)</text>
  <text x="772" y="808" fill="#374151" font-size="9">2. What failed? → summaries/ anti-patterns (30min 自动)</text>
  <text x="772" y="822" fill="#0891b2" font-size="9" font-weight="600">3. Update CLAUDE.md → Hermes Agent auto-inject</text>
  <rect x="20" y="840" width="740" height="32" rx="6" fill="#f9fafb" stroke="#d1d5db" stroke-width="1"/>
  <line x1="30" y1="858" x2="50" y2="858" stroke="#3b82f6" stroke-width="1.5" marker-end="url(#ab)"/>
  <text x="56" y="862" fill="#6b7280" font-size="9">Harness 30s</text>
  <line x1="130" y1="858" x2="150" y2="858" stroke="#8b5cf6" stroke-width="1.5" marker-end="url(#ap)"/>
  <text x="156" y="862" fill="#6b7280" font-size="9">Factory 30min</text>
  <line x1="250" y1="858" x2="270" y2="858" stroke="#0891b2" stroke-width="1.5" marker-end="url(#at)"/>
  <text x="276" y="862" fill="#6b7280" font-size="9">Hermes Agent 10min</text>
  <line x1="400" y1="858" x2="420" y2="858" stroke="#f59e0b" stroke-width="1.5" marker-end="url(#ao)"/>
  <text x="426" y="862" fill="#6b7280" font-size="9">Nightly 0:00</text>
  <line x1="520" y1="858" x2="540" y2="858" stroke="#16a34a" stroke-width="1.5" marker-end="url(#ag)"/>
  <text x="546" y="862" fill="#6b7280" font-size="9">inject → CLAUDE.md</text>
  <line x1="660" y1="858" x2="680" y2="858" stroke="#dc2626" stroke-width="1.5" marker-end="url(#ar)"/>
  <text x="686" y="862" fill="#6b7280" font-size="9">kill orphans</text>
  <text x="1120" y="950" text-anchor="end" fill="#d1d5db" font-size="8">ai-watchdog | fireworks-tech-graph Style 1</text>
</svg>